# xmcd CD database file
#
# Track frame offsets:
#	150
#	11267
#	24134
#	37039
#	51942
#	63983
#	76990
#	91228
#	103316
#	117142
#	129163
#	139550
#	152937
#	163554
#	174420
#	189385
#	201330
#	215442
#	230236
#	244336
#
# Disc length: 3408 seconds
#
# Revision: 5
# Processed by: cddbd v1.5.2PL0 Copyright (c) Steve Scherf et al.
# Submitted via: CDex 1.51
#
DISCID=0a0d4e14
DTITLE=Django Reinhardt - Djangology - Vol.07
DYEAR=1900
DGENRE=Jazz
TTITLE0=Limehouse Blues  (Braham - Furbert)
TTITLE1=Daphné  (Reinhardt)
TTITLE2=At The Jimmy's Bar  (Brun)
TTITLE3=Nuages  (Reinhardt)
TTITLE4=Rhythme Futur  (Reinhardt)
TTITLE5=Begin The Beguine  (Porter)
TTITLE6=Blues  (Reinhardt)
TTITLE7=Coucou  (Mathias - Féline)
TTITLE8=Indécision  (Shavers)
TTITLE9=Sérénade d'Hiver  (Saint-Saëns)
TTITLE10=Le Sheik  (Snyder - Smith - Wheeler)
TTITLE11=Noël Blues  (Chiboust)
TTITLE12=Margie  (Davis - Conrad - Robinson)
TTITLE13=Bijou  (Chiboust)
TTITLE14=Indécision [2]  (Shavers)
TTITLE15=Oui, C'Est Ça  (Barelli)
TTITLE16=Swing 41  (Reinhardt)
TTITLE17=Nuages  (Reinhardt)
TTITLE18=Pour Vous  (Reinhardt)
TTITLE19=Fantaisie Sur Une Danse Norvégienne  (Grieg - arr.Reinhardt)
EXTD=
EXTT0=
EXTT1=
EXTT2=
EXTT3=
EXTT4=
EXTT5=
EXTT6=
EXTT7=
EXTT8=
EXTT9=
EXTT10=
EXTT11=
EXTT12=
EXTT13=
EXTT14=
EXTT15=
EXTT16=
EXTT17=
EXTT18=
EXTT19=
PLAYORDER=
